# xmcd
#
# Track frame offsets:
#	150
#	15877
#	28947
#	43929
#	56225
#	71527
#	87914
#	106460
#	123621
#	138402
#	154051
#
# Disc length: 2256 seconds
#
# Revision: 0
# Processed by: cddbd v1.5.2PL0 Copyright (c) Steve Scherf et al.
# Submitted via: audiograbber 1.83.01
#
DISCID=9708ce0b
DTITLE=Easton Corbin - Easton Corbin
DYEAR=2010
DGENRE=Country
TTITLE0=Roll With It
TTITLE1=A Little More Country Than That
TTITLE2=This Farr From Memphis
TTITLE3=The Way Love Looks
TTITLE4=Someday When Im Old
TTITLE5=Dont Ask Me About A Woman
TTITLE6=I Cant Love You Back
TTITLE7=A Lot To Learn About Livin
TTITLE8=Let Alone You
TTITLE9=That'll Make You Wanna Drink
TTITLE10=Leavin A Lonely Town
EXTD=
EXTT0=
EXTT1=
EXTT2=
EXTT3=
EXTT4=
EXTT5=
EXTT6=
EXTT7=
EXTT8=
EXTT9=
EXTT10=
PLAYORDER=
